# xmcd CD database file
#
# Track frame offsets:
#	150
#	13627
#	42627
#	61930
#	78517
#	102564
#	117061
#	136063
#	153935
#	171225
#	191617
#
# Disc length: 2780 seconds
#
# Revision: 4
# Processed by: cddbd v1.5.2PL0 Copyright (c) Steve Scherf et al.
# Submitted via: CDex 1.51
#
DISCID=8c0ada0b
DTITLE=Ellen Whyte - Four Way Stop
DYEAR=2008
DGENRE=Blues
TTITLE0=The Blues Walked Through My Door
TTITLE1=Over My Shoulder
TTITLE2=No One Knows Better Than Me
TTITLE3=Four Way Stop
TTITLE4=I'm The Last To Know
TTITLE5=Jacks And Jokers
TTITLE6=When You Walk Away From Love
TTITLE7=Falling
TTITLE8=Lucky In Love
TTITLE9=Wide Awake Woman
TTITLE10=Thanks For The Ride
EXTD=YEAR: 2008
EXTT0=
EXTT1=
EXTT2=
EXTT3=
EXTT4=
EXTT5=
EXTT6=
EXTT7=
EXTT8=
EXTT9=
EXTT10=
PLAYORDER=
